#!OML:ASF F:\VICON\USERDATA\INSTALL\rory3\rory3.ASF
:FULLY-SPECIFIED
:DEGREES
66
root 0.633902 22.4512 -1.71829 23.7547 -7.58671 -7.76859
lowerback -4.72018 3.11572 6.88365
upperback -7.82145 4.08089 -0.264355
thorax -5.04087 1.66284 -4.08963
lowerneck -16.4003 -2.98007 -2.87255
upperneck 21.8351 -4.58058 4.77967
head 9.81788 -1.81761 1.53994
rclavicle 1.69464e-014 2.78299e-014
rhumerus 36.2514 19.2072 -28.672
rradius 39.4443
rwrist 5.68025
rhand -17.7171 -38.6402
rfingers 7.12502
rthumb 8.54338 -68.4474
lclavicle 1.69464e-014 2.78299e-014
lhumerus 12.4665 -9.50755 2.30482
lradius 45.3463
lwrist 17.7155
lhand -31.2282 -31.1183
lfingers 7.12502
lthumb -4.50351 -1.18619
rfemur 10.8019 -1.28499 34.736
rtibia 14.7695
rfoot 39.8122 -4.28276
rtoes -5.11724
lfemur -108.806 8.14049 -15.0492
ltibia 56.4358
lfoot 10.4562 3.00605
ltoes -6.73856
67
root 0.608832 22.5718 -1.2616 24.2336 -8.19387 -8.5574
lowerback -5.20718 3.3566 7.30206
upperback -8.12634 4.37248 -0.0890751
thorax -5.05087 1.78313 -4.11269
lowerneck -16.1333 -2.93843 -2.92783
upperneck 21.9934 -4.52027 4.77447
head 9.82208 -1.79783 1.55907
rclavicle 2.78299e-014 -1.35174e-014
rhumerus 34.2753 19.6153 -27.585
rradius 39.5091
rwrist 4.02617
rhand -17.9696 -38.9804
rfingers 7.12502
rthumb 8.29968 -68.7973
lclavicle 2.78299e-014 -1.35174e-014
lhumerus 9.21438 -8.53669 2.44349
lradius 45.1537
lwrist 16.4645
lhand -31.6314 -31.3078
lfingers 7.12502
lthumb -4.89279 -1.38429
rfemur 12.4768 -1.46188 34.4779
rtibia 14.6937
rfoot 40.9577 -5.25872
rtoes -4.1432
lfemur -107.822 9.08705 -13.8399
ltibia 53.9212
lfoot 11.8753 3.84193
ltoes -4.61487
68
root 0.579242 22.7085 -0.804346 24.6731 -8.99617 -8.76655
lowerback -6.12988 3.59845 7.17093
upperback -8.26174 4.61739 -0.123126
thorax -4.65351 1.92444 -4.01274
lowerneck -15.6993 -2.87565 -2.78547
upperneck 21.829 -4.4459 4.6735
head 9.67294 -1.77234 1.5135
rclavicle 1.32689e-014 -3.02153e-014
rhumerus 32.1062 19.7878 -26.728
rradius 39.7989
rwrist 2.73765
rhand -18.2363 -39.6395
rfingers 7.12502
rthumb 8.04232 -69.4665
lclavicle 1.32689e-014 -3.02153e-014
lhumerus 6.16846 -7.29035 2.38642
lradius 44.7323
lwrist 15.2156
lhand -29.8913 -30.8525
lfingers 7.12502
lthumb -3.21252 -0.896997
rfemur 13.7683 -1.83719 33.4005
rtibia 15.0789
rfoot 42.22 -4.93136
rtoes -2.33249
lfemur -107.217 10.0435 -14.4181
ltibia 52.0423
lfoot 12.5271 3.27493
ltoes -2.77098
69
root 0.54627 22.8697 -0.342797 25.2348 -10.043 -8.65259
lowerback -7.45104 3.8717 6.75553
upperback -8.3369 4.87524 -0.305212
thorax -3.97836 2.09396 -3.87328
lowerneck -15.4236 -2.77828 -2.58964
upperneck 21.7506 -4.33999 4.58271
head 9.58229 -1.72289 1.46546
rclavicle 6.11263e-015 -1.23246e-014
rhumerus 30.2722 19.1686 -26.7954
rradius 39.4154
rwrist 2.54376
rhand -18.0926 -39.5187
rfingers 7.12502
rthumb 8.18092 -69.3403
lclavicle 6.11263e-015 -1.23246e-014
lhumerus 3.14996 -5.90955 2.08374
lradius 44.2017
lwrist 14.0074
lhand -26.852 -31.086
lfingers 7.12502
lthumb -0.277137 -1.10646
rfemur 14.3225 -2.1302 31.7903
rtibia 16.2127
rfoot 43.0773 -3.26608
rtoes -1.42144
lfemur -106.622 10.9519 -15.0991
ltibia 50.4832
lfoot 12.7909 2.57427
ltoes -3.75542
70
root 0.518921 23.0165 0.116709 25.9103 -11.5773 -8.48917
lowerback -8.61913 4.30382 6.15529
upperback -8.53491 5.38206 -0.574319
thorax -3.50703 2.3829 -3.71105
lowerneck -15.3339 -2.79285 -2.5308
upperneck 21.9335 -4.397 4.62219
head 9.6319 -1.73961 1.46361
rclavicle 2.24378e-014 7.95139e-015
rhumerus 28.368 18.4745 -26.8751
rradius 38.8767
rwrist 2.18792
rhand -17.826 -39.1881
rfingers 7.12502
rthumb 8.43829 -68.9996
lclavicle 2.24378e-014 7.95139e-015
lhumerus 0.343458 -4.6455 1.67671
lradius 43.5659
lwrist 13.0902
lhand -25.4424 -32.6281
lfingers 7.12502
lthumb 1.08426 -2.65112
rfemur 14.6991 -2.04827 29.8156
rtibia 17.216
rfoot 43.5982 -1.70429
rtoes -1.31318
lfemur -105.988 12.1446 -15.0501
ltibia 49.4427
lfoot 13.1705 2.79696
ltoes -7.27827
71
root 0.498775 23.1462 0.580033 26.2793 -13.6401 -8.47851
lowerback -9.27272 4.92936 5.58413
upperback -8.78502 6.19637 -0.8572
thorax -3.35017 2.81224 -3.58356
lowerneck -14.9838 -2.86433 -2.52905
upperneck 22.1472 -4.53168 4.68889
head 9.64859 -1.79783 1.47362
rclavicle -2.66123e-014 0
rhumerus 25.852 18.0722 -26.7812
rradius 38.6036
rwrist 2.38372
rhand -17.8144 -38.8279
rfingers 7.12502
rthumb 8.44947 -68.6389
lclavicle -2.66123e-014 0
lhumerus -2.25457 -3.87002 1.13822
lradius 42.8425
lwrist 12.6721
lhand -26.3651 -33.9897
lfingers 7.12502
lthumb 0.193113 -4.01007
rfemur 15.0903 -1.88025 27.5063
rtibia 18.5815
rfoot 43.7036 -0.460866
rtoes -0.975396
lfemur -104.72 13.7602 -14.2374
ltibia 48.4917
lfoot 14.1889 3.84945
ltoes -8.23473
72
root 0.489413 23.2197 1.0724 27.2481 -15.1463 -9.66656
lowerback -10.7005 5.69668 6.38741
upperback -9.00381 7.05444 -0.760197
thorax -2.65797 3.22416 -3.71746
lowerneck -14.7189 -2.78986 -2.5372
upperneck 22.3902 -4.44597 4.70391
head 9.68119 -1.75851 1.49536
rclavicle 4.44781e-015 1.59028e-015
rhumerus 23.5494 17.3316 -26.7554
rradius 38.2978
rwrist 2.52034
rhand -16.9348 -40.4483
rfingers 7.12502
rthumb 9.29822 -70.2232
lclavicle 4.44781e-015 1.59028e-015
lhumerus -4.96176 -3.3505 0.589391
lradius 42.2712
lwrist 12.5573
lhand -27.5897 -34.2683
lfingers 7.12502
lthumb -0.989656 -4.29085
rfemur 15.0051 -2.06254 26.3203
rtibia 20.3259
rfoot 43.5113 1.01734
rtoes -1.76401
lfemur -104.095 15.5846 -12.4664
ltibia 47.6706
lfoot 15.7269 4.68591
ltoes -6.624
